# xmcd
#
# Track frame offsets:
#	182
#	11107
#	25712
#	55152
#	96260
#	112705
#
# Disc length: 2490 seconds
#
# Revision: 0
# Processed by: cddbd v1.5.1PL0 Copyright (c) Steve Scherf et al.
# Submitted via: dBpowerAMP V4.0
#
DISCID=3d09b806
DTITLE=Jose Larralde - Del sur pa' allá
DYEAR=1900
DGENRE=
TTITLE0=De puro solo 
TTITLE1=De Buenos Aires Morena
TTITLE2=El Berrero
TTITLE3=Fragmento de Catalino Paredes
TTITLE4=Detrás del Tiempo
TTITLE5=De mi cuero
EXTD=
EXTT0=
EXTT1=
EXTT2=
EXTT3=
EXTT4=
EXTT5=
PLAYORDER=
